<mxfile host="Electron" agent="Mozilla/5.0 (Windows NT 10.0; Win64; x64) AppleWebKit/537.36 (KHTML, like Gecko) draw.io/28.1.2 Chrome/138.0.7204.243 Electron/37.4.0 Safari/537.36" version="28.1.2">
  <diagram name="Page-1" id="EJUd-INsThSqOHwTjZL0">
    <mxGraphModel dx="1026" dy="786" grid="1" gridSize="10" guides="1" tooltips="1" connect="1" arrows="1" fold="1" page="1" pageScale="1" pageWidth="850" pageHeight="1100" math="0" shadow="0">
      <root>
        <mxCell id="0" />
        <mxCell id="1" parent="0" />
        <mxCell id="i2G94lSHwPyEugUYW2sP-5" style="edgeStyle=orthogonalEdgeStyle;rounded=0;orthogonalLoop=1;jettySize=auto;html=1;exitX=0.5;exitY=1;exitDx=0;exitDy=0;entryX=0.5;entryY=0;entryDx=0;entryDy=0;" edge="1" parent="1" source="i2G94lSHwPyEugUYW2sP-1" target="i2G94lSHwPyEugUYW2sP-2">
          <mxGeometry relative="1" as="geometry" />
        </mxCell>
        <mxCell id="i2G94lSHwPyEugUYW2sP-1" value="Read Question" style="rounded=0;whiteSpace=wrap;html=1;" vertex="1" parent="1">
          <mxGeometry x="365" y="50" width="120" height="60" as="geometry" />
        </mxCell>
        <mxCell id="i2G94lSHwPyEugUYW2sP-6" style="edgeStyle=orthogonalEdgeStyle;rounded=0;orthogonalLoop=1;jettySize=auto;html=1;exitX=0.5;exitY=1;exitDx=0;exitDy=0;entryX=0.5;entryY=0;entryDx=0;entryDy=0;" edge="1" parent="1" source="i2G94lSHwPyEugUYW2sP-2" target="i2G94lSHwPyEugUYW2sP-3">
          <mxGeometry relative="1" as="geometry" />
        </mxCell>
        <mxCell id="i2G94lSHwPyEugUYW2sP-2" value="Did not know." style="rounded=0;whiteSpace=wrap;html=1;" vertex="1" parent="1">
          <mxGeometry x="365" y="140" width="120" height="60" as="geometry" />
        </mxCell>
        <mxCell id="i2G94lSHwPyEugUYW2sP-8" style="edgeStyle=orthogonalEdgeStyle;rounded=0;orthogonalLoop=1;jettySize=auto;html=1;exitX=0.5;exitY=1;exitDx=0;exitDy=0;entryX=0.5;entryY=0;entryDx=0;entryDy=0;" edge="1" parent="1" source="i2G94lSHwPyEugUYW2sP-3" target="i2G94lSHwPyEugUYW2sP-7">
          <mxGeometry relative="1" as="geometry" />
        </mxCell>
        <mxCell id="i2G94lSHwPyEugUYW2sP-3" value="spend time reading&lt;div&gt;it multiple times&lt;/div&gt;" style="rounded=0;whiteSpace=wrap;html=1;" vertex="1" parent="1">
          <mxGeometry x="355" y="240" width="140" height="60" as="geometry" />
        </mxCell>
        <mxCell id="i2G94lSHwPyEugUYW2sP-10" style="edgeStyle=orthogonalEdgeStyle;rounded=0;orthogonalLoop=1;jettySize=auto;html=1;exitX=0.5;exitY=1;exitDx=0;exitDy=0;entryX=0.5;entryY=0;entryDx=0;entryDy=0;" edge="1" parent="1" source="i2G94lSHwPyEugUYW2sP-7" target="i2G94lSHwPyEugUYW2sP-9">
          <mxGeometry relative="1" as="geometry" />
        </mxCell>
        <mxCell id="i2G94lSHwPyEugUYW2sP-7" value="Quickly was able&lt;div&gt;write code&lt;/div&gt;" style="rounded=0;whiteSpace=wrap;html=1;" vertex="1" parent="1">
          <mxGeometry x="365" y="330" width="120" height="60" as="geometry" />
        </mxCell>
        <mxCell id="i2G94lSHwPyEugUYW2sP-9" value="Do not know if I did&lt;div&gt;the question correctly&lt;/div&gt;" style="rounded=0;whiteSpace=wrap;html=1;" vertex="1" parent="1">
          <mxGeometry x="350" y="440" width="150" height="60" as="geometry" />
        </mxCell>
      </root>
    </mxGraphModel>
  </diagram>
</mxfile>
